<svg xmlns="http://www.w3.org/2000/svg" viewBox="0 0 404.41 66.11"><defs><style>.cls-1{font-size:42.72px;fill:#333;font-family:GTAmericaMono-Medium, GT America Mono;letter-spacing:-0.08em;}.cls-2{letter-spacing:-0.14em;}.cls-3{font-size:60.32px;letter-spacing:-0.6em;}.cls-4{letter-spacing:-0.08em;}.cls-5{letter-spacing:-0.1em;}.cls-6{letter-spacing:-0.12em;}.cls-7{fill:#d33433;}.cls-8{fill:#315dbe;}.cls-9{fill:#fcaf73;}</style></defs><title>react-sketch-stijl</title><g id="Layer_2" data-name="Layer 2"><g id="Layer_3" data-name="Layer 3"><text class="cls-1" transform="translate(80.4 51.57)">&lt;Rea<tspan class="cls-2" x="92.28" y="0">c</tspan><tspan x="112.78" y="0">t</tspan><tspan class="cls-3" x="135.85" y="0"> </tspan><tspan class="cls-4" x="136.85" y="0">Sk</tspan><tspan class="cls-5" x="182.99" y="0">e</tspan><tspan class="cls-6" x="205.2" y="0">t</tspan><tspan x="226.56" y="0">ch</tspan><tspan class="cls-3" x="272.7" y="0">     </tspan><tspan class="cls-4" x="277.7" y="0">/&gt;</tspan></text><polygon class="cls-7" points="41.47 35.61 38.98 29.4 26.56 29.4 24.08 35.61 24.08 35.62 32.77 46.17 41.47 35.61"/><path class="cls-8" d="M38.55,53c.68-.79,1.34-1.62,2-2.48s1.24-1.68,1.85-2.56,1.12-1.68,1.66-2.56c.33-.54.67-1.07,1-1.63s.6-1.1.9-1.65q.75-1.39,1.41-2.77t1.28-2.86c.42-1,.8-2,1.15-3q.68-1.93,1.16-3.78c-.67-.29-1.39-.56-2.14-.83-.14.56-.29,1.12-.46,1.69-.29,1-.64,2-1,3s-.73,1.91-1.15,2.87-.82,1.83-1.28,2.76c-.56,1.14-1.16,2.28-1.81,3.41s-1.35,2.23-2.06,3.3c-.56.84-1.13,1.66-1.71,2.45S38.07,50,37.42,50.83,36,52.46,35.31,53.2c-.41.43-.82.85-1.23,1.25s-1.08,1-1.61,1.5-1.19,1-1.78,1.48-1.25.91-1.87,1.32a14.31,14.31,0,0,1-7.4,2.71,5.8,5.8,0,0,1-2.95-.74c-2.48-1.43-3.71-5-3.47-9.94-.76-.24-1.49-.5-2.2-.77-.45,6.19,1.14,10.68,4.55,12.65s8.3,1,13.25-2.37q.93-.63,1.86-1.36c.6-.47,1.19-1,1.79-1.51s1.08-1,1.61-1.53Q37.22,54.54,38.55,53Z"/><path class="cls-8" d="M13,25.26c.11.75.25,1.52.41,2.3s.33,1.43.52,2.16q.49,1.85,1.16,3.78c.34,1,.73,2,1.15,3s.82,1.9,1.28,2.86.91,1.84,1.41,2.77c.3.55.58,1.1.9,1.65s.66,1.09,1,1.63q.81,1.32,1.66,2.56t1.85,2.56c.66.86,1.32,1.69,2,2.48q1.33,1.55,2.7,2.91c.58-.43,1.18-.92,1.78-1.44-.42-.41-.83-.81-1.24-1.25-.71-.75-1.4-1.54-2.09-2.37s-1.29-1.6-1.92-2.44-1.16-1.61-1.73-2.45c-.71-1.06-1.41-2.16-2.07-3.3S20.55,40.37,20,39.23q-.68-1.38-1.28-2.76T17.56,33.6c-.37-1-.72-2-1-3-.17-.57-.31-1.13-.46-1.69q-.28-1.09-.49-2.15t-.38-2.28c-.1-.78-.18-1.54-.22-2.28-.25-4.77.86-8.44,3.46-9.94s6.33-.63,10.33,2c.62.4,1.25.85,1.88,1.34s1.19.94,1.78,1.47,1.08,1,1.62,1.5.83.81,1.24,1.24q1.65.07,3.24.21-1.33-1.55-2.69-2.9-.81-.8-1.63-1.53t-1.78-1.49c-.63-.5-1.26-1-1.88-1.38-3.24-2.19-6.39-3.4-9.17-3.4a8,8,0,0,0-4.05,1c-3.51,2-5,6.69-4.58,12.66Q12.85,24.09,13,25.26Z"/><path class="cls-8" d="M54,26.19q-1-.49-2.11-.93c-.7-.28-1.44-.54-2.2-.79s-1.4-.43-2.13-.63q-1.85-.5-3.85-.88c-1-.19-2.07-.35-3.14-.49s-2.08-.24-3.16-.32-2-.13-3-.16c-.63,0-1.26,0-1.9,0s-1.27,0-1.9,0q-1.55,0-3.06.16t-3.15.32c-1.07.14-2.12.3-3.14.49q-2,.38-3.85.88c.08.72.2,1.48.35,2.27.55-.16,1.11-.31,1.69-.45,1-.24,2-.44,3.1-.63s2-.32,3.09-.44,2-.2,3-.27c1.28-.08,2.57-.14,3.89-.14s2.61.06,3.89.14q1.52.1,3,.27t3.09.44c1.06.18,2.1.39,3.1.63.58.14,1.13.29,1.69.45q1.09.3,2.11.65t2.17.81c.73.3,1.43.62,2.08,1,4.25,2.17,6.88,5,6.88,8s-2.63,5.81-6.89,8c.17.78.33,1.56.45,2.32,5.39-2.61,8.68-6.23,8.68-10.29S59.39,28.81,54,26.19Z"/><path class="cls-8" d="M50.68,59.28A17.53,17.53,0,0,0,52.11,50c0-.19,0-.36,0-.55-.05-.57-.14-1.15-.22-1.74q-.16-1.13-.41-2.3c-.15-.71-.32-1.44-.51-2.17-.33-1.25-.7-2.51-1.15-3.79q-.66,1.44-1.42,2.88c.17.58.32,1.15.47,1.72q.28,1.09.49,2.15t.37,2.29c.05.39.11.78.15,1.16s0,.75.06,1.12a15.69,15.69,0,0,1-1,6.94A4.49,4.49,0,0,1,50.68,59.28Z"/><path class="cls-8" d="M42.49,61.36a15.79,15.79,0,0,1-6.37-2.62q-.9.82-1.79,1.54a17.76,17.76,0,0,0,8.61,3.37,4.42,4.42,0,0,1-.47-2C42.45,61.58,42.48,61.47,42.49,61.36Z"/><circle class="cls-9" cx="47.43" cy="11.52" r="3.36"/><path class="cls-8" d="M50.94,14.26a4.48,4.48,0,0,1-1.83,1.4,16.28,16.28,0,0,1,.8,6.54c.77.24,1.51.51,2.23.78A18.26,18.26,0,0,0,50.94,14.26Z"/><path class="cls-8" d="M43.57,9.28h-.06c-2.78,0-5.94,1.21-9.17,3.4.59.48,1.19,1,1.78,1.54A15.1,15.1,0,0,1,43,11.54v0A4.42,4.42,0,0,1,43.57,9.28Z"/><path class="cls-8" d="M11.35,28.52q-.26-1.18-.44-2.32A17.67,17.67,0,0,0,3.64,32a4.45,4.45,0,0,1,2.23.74A15.67,15.67,0,0,1,11.35,28.52Z"/><path class="cls-8" d="M19.41,47.32c-.58-.14-1.13-.29-1.68-.45q-1.11-.31-2.15-.66t-2.12-.8c-.73-.3-1.44-.62-2.09-1a15.69,15.69,0,0,1-5.5-4.27,4.45,4.45,0,0,1-2.23.74,17.66,17.66,0,0,0,7.28,5.84q1,.49,2.14.94c.69.28,1.41.53,2.16.78s1.43.44,2.17.65q1.84.5,3.83.88Q20.29,48.71,19.41,47.32Z"/><circle class="cls-9" cx="3.36" cy="36.49" r="3.36"/><circle class="cls-9" cx="46.93" cy="61.7" r="3.36"/></g></g></svg>